<?xml version="1.0" encoding="UTF-8" standalone="no"?><!DOCTYPE svg PUBLIC "-//W3C//DTD SVG 1.1//EN" "http://www.w3.org/Graphics/SVG/1.1/DTD/svg11.dtd"><svg width="100%" height="100%" viewBox="0 0 307 95" version="1.1" xmlns="http://www.w3.org/2000/svg" xmlns:xlink="http://www.w3.org/1999/xlink" xml:space="preserve" xmlns:serif="http://www.serif.com/" style="fill-rule:evenodd;clip-rule:evenodd;stroke-linejoin:round;stroke-miterlimit:2;"><g id="Layer-1" serif:id="Layer 1"><path id="L" d="M48.75,72.917l-48.75,0l0,-70.833l9.167,0l0,62.917l39.583,0l0,7.917Z" style="fill-rule:nonzero;"/><path id="_-inspo" serif:id="+inspo" d="M41.667,33.75l11.667,0l0,7.083l-11.667,0l0,12.917l-8.333,0l0,-12.917l-11.667,0l0,-7.083l11.667,0l0,-12.917l8.333,0l0,12.917Zm32.5,39.167l-8.75,0l0,-52.083l8.75,0l0,52.083Zm0,-62.083l-8.75,0l0,-10.833l8.75,0l0,10.833Zm57.5,30.833l0,31.25l-8.75,0l0,-29.167c0,-5.556 -0.972,-9.722 -2.917,-12.5c-1.667,-2.5 -4.167,-3.75 -7.5,-3.75c-2.5,0 -4.861,0.556 -7.083,1.667c-2.5,1.389 -4.583,3.056 -6.25,5c-1.944,1.944 -3.333,4.306 -4.167,7.083l0,31.667l-8.75,0l0,-52.5l7.917,0l0,11.25c1.389,-2.5 3.194,-4.583 5.417,-6.25c2.222,-1.944 4.722,-3.333 7.5,-4.167c2.778,-1.111 5.694,-1.667 8.75,-1.667c3.056,0 5.556,0.556 7.5,1.667c2.222,1.111 3.889,2.639 5,4.583c1.111,1.944 1.944,4.306 2.5,7.083c0.556,2.5 0.833,5.417 0.833,8.75Zm35,32.083c-4.444,0 -8.472,-0.694 -12.083,-2.083c-3.889,-1.389 -7.222,-3.611 -10,-6.667l3.333,-6.25c3.056,3.056 6.111,5.139 9.167,6.25c3.056,1.111 6.111,1.667 9.167,1.667c3.611,0 6.528,-0.694 8.75,-2.083c2.222,-1.389 3.333,-3.333 3.333,-5.833c0,-1.944 -0.556,-3.472 -1.667,-4.583c-1.111,-0.833 -2.778,-1.528 -5,-2.083c-1.944,-0.556 -4.444,-1.25 -7.5,-2.083c-3.611,-1.111 -6.667,-2.361 -9.167,-3.75c-2.5,-1.111 -4.306,-2.5 -5.417,-4.167c-1.389,-1.944 -2.083,-4.306 -2.083,-7.083c0,-3.333 0.833,-6.111 2.5,-8.333c1.944,-2.222 4.306,-4.028 7.083,-5.417c3.056,-1.111 6.528,-1.667 10.417,-1.667c3.889,0 7.5,0.556 10.833,1.667c3.056,1.389 5.694,3.194 7.917,5.417l-4.167,6.25c-1.944,-2.222 -4.167,-3.75 -6.667,-4.583c-2.5,-1.111 -5.278,-1.667 -8.333,-1.667c-1.667,0 -3.472,0.139 -5.417,0.417c-1.667,0.556 -3.056,1.389 -4.167,2.5c-1.111,1.111 -1.667,2.639 -1.667,4.583c0,1.667 0.417,3.056 1.25,4.167c1.111,0.833 2.5,1.528 4.167,2.083c1.667,0.833 3.75,1.667 6.25,2.5c4.167,1.111 7.639,2.222 10.417,3.333c2.778,1.111 5,2.5 6.667,4.167c1.667,1.944 2.5,4.444 2.5,7.5c0,5 -1.806,8.889 -5.417,11.667c-3.889,2.778 -8.889,4.167 -15,4.167Zm55.833,0c-4.167,0 -7.917,-1.111 -11.25,-3.333c-3.333,-1.944 -5.972,-4.583 -7.917,-7.917l0,31.667l-8.75,0l0,-73.75l7.917,0l0,10c1.944,-3.333 4.583,-5.972 7.917,-7.917c3.333,-1.944 6.944,-2.917 10.833,-2.917c3.611,0 6.944,0.694 10,2.083c3.056,1.667 5.694,3.75 7.917,6.25c2.222,2.5 3.889,5.417 5,8.75c1.389,3.056 2.083,6.389 2.083,10c0,5 -1.111,9.583 -3.333,13.75c-1.944,3.889 -4.583,7.083 -7.917,9.583c-3.611,2.5 -7.778,3.75 -12.5,3.75Zm-2.5,-7.5c2.5,0 4.861,-0.556 7.083,-1.667c1.944,-1.111 3.75,-2.639 5.417,-4.583c1.389,-1.667 2.5,-3.75 3.333,-6.25c0.833,-2.222 1.25,-4.583 1.25,-7.083c0,-2.5 -0.417,-5 -1.25,-7.5c-0.833,-2.222 -2.083,-4.306 -3.75,-6.25c-1.667,-1.667 -3.611,-3.056 -5.833,-4.167c-2.222,-1.111 -4.583,-1.667 -7.083,-1.667c-1.667,0 -3.333,0.417 -5,1.25c-1.667,0.556 -3.194,1.389 -4.583,2.5c-1.667,1.111 -3.056,2.361 -4.167,3.75c-1.111,1.389 -1.806,2.778 -2.083,4.167l0,15c1.111,2.222 2.5,4.306 4.167,6.25c1.667,1.944 3.611,3.472 5.833,4.583c2.222,1.111 4.444,1.667 6.667,1.667Zm60,7.5c-3.889,0 -7.5,-0.694 -10.833,-2.083c-3.056,-1.389 -5.833,-3.333 -8.333,-5.833c-2.222,-2.5 -4.028,-5.417 -5.417,-8.75c-1.111,-3.333 -1.667,-6.806 -1.667,-10.417c0,-3.611 0.556,-7.083 1.667,-10.417c1.389,-3.333 3.194,-6.111 5.417,-8.333c2.5,-2.778 5.278,-4.861 8.333,-6.25c3.333,-1.389 6.944,-2.083 10.833,-2.083c3.889,0 7.361,0.694 10.417,2.083c3.333,1.389 6.111,3.472 8.333,6.25c2.5,2.222 4.444,5 5.833,8.333c1.111,3.333 1.667,6.806 1.667,10.417c0,3.611 -0.556,7.083 -1.667,10.417c-1.389,3.333 -3.194,6.25 -5.417,8.75c-2.5,2.5 -5.417,4.444 -8.75,5.833c-3.056,1.389 -6.528,2.083 -10.417,2.083Zm-17.5,-27.083c0,3.611 0.833,6.944 2.5,10c1.667,3.056 3.75,5.417 6.25,7.083c2.5,1.667 5.417,2.5 8.75,2.5c3.056,0 5.972,-0.833 8.75,-2.5c2.5,-1.944 4.583,-4.306 6.25,-7.083c1.667,-3.056 2.5,-6.389 2.5,-10c0,-3.611 -0.833,-6.944 -2.5,-10c-1.667,-2.778 -3.75,-5 -6.25,-6.667c-2.778,-1.944 -5.694,-2.917 -8.75,-2.917c-3.333,0 -6.25,0.972 -8.75,2.917c-2.778,1.667 -4.861,4.028 -6.25,7.083c-1.667,2.778 -2.5,5.972 -2.5,9.583Z" style="fill-rule:nonzero;"/></g></svg>