<?xml version="1.0" encoding="UTF-8" standalone="no"?>
<!DOCTYPE svg PUBLIC "-//W3C//DTD SVG 1.1//EN" "http://www.w3.org/Graphics/SVG/1.1/DTD/svg11.dtd">
<svg width="100%" height="100%" viewBox="0 0 1527 407" version="1.1" xmlns="http://www.w3.org/2000/svg" xmlns:xlink="http://www.w3.org/1999/xlink" xml:space="preserve" xmlns:serif="http://www.serif.com/" style="fill-rule:evenodd;clip-rule:evenodd;stroke-linejoin:round;stroke-miterlimit:2;">
    <g transform="matrix(1,0,0,1,-592.136226,-1250.626733)">
        <g transform="matrix(8.713934,0,0,8.713934,-4557.853008,-9675.149908)">
            <path d="M591.006,1254.048L598.526,1254.048L598.526,1283.565L616.348,1283.565L616.348,1290.034L591.006,1290.034L591.006,1254.048Z" style="fill-rule:nonzero;"/>
        </g>
        <g transform="matrix(8.713934,0,0,8.713934,-4557.853008,-9675.149908)">
            <path d="M664.2,1268.574C661.84,1268.574 660.22,1269.575 659.341,1271.577C658.885,1272.635 658.658,1273.986 658.658,1275.63L658.658,1290.034L651.724,1290.034L651.724,1263.472L658.438,1263.472L658.438,1267.354C659.333,1265.987 660.179,1265.002 660.977,1264.4C662.409,1263.325 664.224,1262.788 666.421,1262.788C669.172,1262.788 671.422,1263.508 673.172,1264.949C674.921,1266.389 675.796,1268.778 675.796,1272.114L675.796,1290.034L668.667,1290.034L668.667,1273.848C668.667,1272.448 668.48,1271.374 668.106,1270.625C667.422,1269.258 666.12,1268.574 664.2,1268.574Z" style="fill-rule:nonzero;"/>
        </g>
        <g transform="matrix(8.713934,0,0,8.713934,-4557.853008,-9675.149908)">
            <path d="M700.552,1264.644C702.635,1265.978 703.832,1268.273 704.141,1271.529L697.183,1271.529C697.085,1270.633 696.833,1269.925 696.426,1269.404C695.661,1268.46 694.359,1267.988 692.52,1267.988C691.006,1267.988 689.928,1268.224 689.285,1268.696C688.642,1269.168 688.321,1269.722 688.321,1270.357C688.321,1271.154 688.663,1271.732 689.346,1272.09C690.03,1272.464 692.447,1273.107 696.597,1274.019C699.364,1274.67 701.439,1275.654 702.823,1276.973C704.19,1278.307 704.873,1279.976 704.873,1281.978C704.873,1284.614 703.893,1286.767 701.932,1288.435C699.97,1290.104 696.939,1290.938 692.837,1290.938C688.654,1290.938 685.566,1290.055 683.572,1288.289C681.578,1286.523 680.581,1284.273 680.581,1281.538L687.637,1281.538C687.784,1282.775 688.101,1283.654 688.589,1284.175C689.452,1285.103 691.047,1285.567 693.374,1285.567C694.742,1285.567 695.828,1285.363 696.634,1284.956C697.439,1284.549 697.842,1283.939 697.842,1283.125C697.842,1282.344 697.517,1281.75 696.866,1281.343C696.215,1280.936 693.798,1280.236 689.615,1279.243C686.604,1278.495 684.48,1277.559 683.243,1276.436C682.006,1275.329 681.387,1273.734 681.387,1271.651C681.387,1269.193 682.351,1267.081 684.28,1265.315C686.209,1263.549 688.923,1262.666 692.422,1262.666C695.743,1262.666 698.453,1263.325 700.552,1264.644Z" style="fill-rule:nonzero;"/>
        </g>
        <g transform="matrix(8.713934,0,0,8.713934,-4557.853008,-9675.149908)">
            <path d="M732.315,1266.279C734.463,1268.574 735.538,1271.944 735.538,1276.387C735.538,1281.074 734.484,1284.647 732.376,1287.105C730.268,1289.562 727.554,1290.791 724.234,1290.791C722.118,1290.791 720.36,1290.262 718.96,1289.204C718.195,1288.618 717.447,1287.764 716.714,1286.641L716.714,1300.508L709.829,1300.508L709.829,1263.423L716.495,1263.423L716.495,1267.354C717.243,1266.198 718.041,1265.287 718.887,1264.619C720.433,1263.431 722.273,1262.837 724.405,1262.837C727.513,1262.837 730.15,1263.985 732.315,1266.279ZM728.36,1276.729C728.36,1274.678 727.892,1272.863 726.956,1271.284C726.02,1269.706 724.502,1268.916 722.403,1268.916C719.88,1268.916 718.147,1270.112 717.203,1272.505C716.714,1273.775 716.47,1275.386 716.47,1277.339C716.47,1280.432 717.292,1282.604 718.936,1283.858C719.913,1284.59 721.068,1284.956 722.403,1284.956C724.34,1284.956 725.817,1284.208 726.834,1282.71C727.851,1281.213 728.36,1279.219 728.36,1276.729Z" style="fill-rule:nonzero;"/>
        </g>
        <g transform="matrix(8.713934,0,0,8.713934,-4557.853008,-9675.149908)">
            <path d="M762.759,1266.792C765.005,1269.608 766.128,1272.936 766.128,1276.778C766.128,1280.684 765.005,1284.024 762.759,1286.8C760.513,1289.575 757.103,1290.962 752.53,1290.962C747.956,1290.962 744.546,1289.575 742.3,1286.8C740.054,1284.024 738.931,1280.684 738.931,1276.778C738.931,1272.936 740.054,1269.608 742.3,1266.792C744.546,1263.976 747.956,1262.569 752.53,1262.569C757.103,1262.569 760.513,1263.976 762.759,1266.792ZM752.505,1268.452C750.471,1268.452 748.904,1269.173 747.806,1270.613C746.707,1272.053 746.158,1274.108 746.158,1276.778C746.158,1279.447 746.707,1281.506 747.806,1282.954C748.904,1284.403 750.471,1285.127 752.505,1285.127C754.54,1285.127 756.102,1284.403 757.193,1282.954C758.283,1281.506 758.829,1279.447 758.829,1276.778C758.829,1274.108 758.283,1272.053 757.193,1270.613C756.102,1269.173 754.54,1268.452 752.505,1268.452Z" style="fill-rule:nonzero;"/>
        </g>
        <g transform="matrix(8.713934,0,0,8.713934,-4557.853008,-9675.149908)">
            <path d="M636.538,1263.423L636.538,1290.034L629.483,1290.034L629.483,1263.423L636.538,1263.423ZM636.538,1253.828L636.538,1260.249L629.483,1260.249L629.483,1253.828L636.538,1253.828Z" style="fill:rgb(212,201,95);fill-rule:nonzero;"/>
        </g>
        <g transform="matrix(1.016667,0,0,1.037736,-8.75,117.792453)">
            <rect x="1005" y="1251" width="60" height="53" style="fill:rgb(43,73,208);"/>
        </g>
        <g transform="matrix(1.016667,0,0,1.037736,-176.121044,116.951868)">
            <rect x="1005" y="1251" width="60" height="53" style="fill:rgb(202,62,62);"/>
        </g>
    </g>
</svg>
